<svg xmlns="http://www.w3.org/2000/svg" xmlns:xlink="http://www.w3.org/1999/xlink" fill="none" version="1.1" width="32" height="32" viewBox="0 0 32 32"><g><path d="M13.8245,27.4286L16.0032,23.6188L22.3205,12.5718L27.1119,12.5718C27.1119,12.5718,31.249,19.809,31.249,19.809L26.8917,19.809L24.7146,15.9992L16.0016,31.2384L13.8229,27.4286L13.8245,27.4286ZM2.93444,8.37962L7.29016,8.37962L9.46722,12.1894L15.7829,23.2396L13.3888,27.4318L5.11309,27.4318C5.11309,27.4318,7.29174,23.6188,7.29174,23.6188L11.6475,23.6188C11.6475,23.6188,2.93444,8.37962,2.93444,8.37962ZM7.50723,7.9988L11.6459,0.761641L13.8245,4.57143L11.6459,8.38122L29.0719,8.38122L26.8948,12.1894L9.90454,12.1894L7.50723,7.9988ZM11.6459,0.00000244153C11.5112,0.00000244153,11.3813,0.0368048,11.2688,0.102407C11.1563,0.168011,11.0596,0.264016,10.9915,0.380821L7.28857,6.85794L6.85284,7.61798L2.93286,7.61798C2.79818,7.61798,2.66825,7.65478,2.55575,7.72039C2.44326,7.78599,2.3466,7.88199,2.28006,7.9988L0.101406,11.8086C0.0348586,11.9254,0,12.0582,0,12.1894C0,12.3206,0.0332738,12.4534,0.101406,12.5702L4.24005,19.809L2.28006,23.238C2.21351,23.3564,2.17865,23.4876,2.17865,23.6188C2.17865,23.75,2.21351,23.8828,2.28006,23.9996L4.4587,27.8094C4.52525,27.9262,4.6219,28.0222,4.7344,28.0878C4.84848,28.1534,4.97683,28.1902,5.11151,28.1902L13.3872,28.1902L15.3472,31.6192C15.4819,31.8544,15.7306,32,16,32L20.3557,32C20.4904,32,20.6203,31.9632,20.7328,31.8976C20.8453,31.832,20.942,31.736,21.0085,31.6192L25.1472,24.3804L29.0671,24.3804C29.2018,24.3804,29.3318,24.3436,29.4442,24.278C29.5567,24.2124,29.6534,24.1164,29.7199,23.9996L31.8986,20.1898C31.9667,20.073,32,19.9402,32,19.809C32,19.6778,31.9667,19.545,31.8986,19.4282L28.1973,12.9526L27.7615,12.1894L29.7215,8.76204C29.7881,8.64523,29.8229,8.51243,29.8229,8.38122C29.8229,8.25001,29.7897,8.11721,29.7215,8.0004L27.5429,4.19061C27.4763,4.0738,27.3797,3.9778,27.2672,3.9122C27.1547,3.84659,27.0248,3.80979,26.8901,3.80979L18.6128,3.80979L16.6528,0.380819C16.5181,0.145607,16.2694,0,16,0L11.6443,0L11.6459,0.00000244153Z" fill="#645FED" fill-opacity="1" style="mix-blend-mode:passthrough"/></g></svg>