<?xml version="1.0" standalone="no"?><!DOCTYPE svg PUBLIC "-//W3C//DTD SVG 1.1//EN" "http://www.w3.org/Graphics/SVG/1.1/DTD/svg11.dtd"><svg t="1773201802826" class="icon" viewBox="0 0 1031 1024" version="1.1" xmlns="http://www.w3.org/2000/svg" p-id="13216" xmlns:xlink="http://www.w3.org/1999/xlink" width="201.3671875" height="200"><path d="M546.035953 175.7184h60.592188v60.592188h-60.592188zM606.635671 236.306071h60.592188v60.592188h-60.592188zM243.094588 175.7184h60.592188v60.592188H243.094588zM121.893647 60.593694h60.592188v60.592188H121.893647zM0.718306 405.9648h60.592188v60.592188H0.718306zM848.999906 963.406306h60.592188v60.592188h-60.592188z" fill="#000000" p-id="13217"></path><path d="M848.999906 902.817129h60.592188v60.592189h-60.592188zM848.999906 842.223435h60.592188v60.592189h-60.592188z" fill="#A60000" p-id="13218"></path><path d="M848.999906 781.632753h60.592188v60.592188h-60.592188z" fill="#FFD800" p-id="13219"></path><path d="M848.999906 721.040565h60.592188v60.592188h-60.592188z" fill="#A60000" p-id="13220"></path><path d="M848.999906 660.449882h60.592188v60.592189h-60.592188z" fill="#A60000" p-id="13221"></path><path d="M485.446776 963.406306h60.592189v60.592188h-60.592189z" fill="#000000" p-id="13222"></path><path d="M485.446776 902.817129h60.592189v60.592189h-60.592189z" fill="#A60000" p-id="13223"></path><path d="M485.446776 842.223435h60.592189v60.592189h-60.592189z" fill="#FF0302" p-id="13224"></path><path d="M485.446776 781.632753h60.592189v60.592188h-60.592189zM485.446776 721.040565h60.592189v60.592188h-60.592189z" fill="#FFD800" p-id="13225"></path><path d="M485.446776 660.449882h60.592189v60.592189h-60.592189z" fill="#FFFFFF" p-id="13226"></path><path d="M485.446776 539.267012h60.592189v60.592188h-60.592189z" fill="#FF0302" p-id="13227"></path><path d="M485.446776 599.856188h60.592189v60.592188h-60.592189zM485.446776 478.673318h60.592189v60.592188h-60.592189z" fill="#FF0302" p-id="13228"></path><path d="M485.446776 418.082635h60.592189v60.592189h-60.592189z" fill="#FF0302" p-id="13229"></path><path d="M727.823059 963.406306h60.592188v60.592188H727.823059z" fill="#000000" p-id="13230"></path><path d="M727.823059 902.817129h60.592188v60.592189H727.823059z" fill="#A60000" p-id="13231"></path><path d="M727.823059 842.223435h60.592188v60.592189H727.823059z" fill="#FF0302" p-id="13232"></path><path d="M727.823059 781.632753h60.592188v60.592188H727.823059zM727.823059 721.040565h60.592188v60.592188H727.823059z" fill="#FFD800" p-id="13233"></path><path d="M727.823059 660.449882h60.592188v60.592189H727.823059z" fill="#FFFFFF" p-id="13234"></path><path d="M727.823059 599.856188h60.592188v60.592188H727.823059z" fill="#FF0302" p-id="13235"></path><path d="M364.269929 963.406306h60.592189v60.592188h-60.592189z" fill="#000000" p-id="13236"></path><path d="M364.269929 902.817129h60.592189v60.592189h-60.592189z" fill="#A60000" p-id="13237"></path><path d="M364.269929 842.223435h60.592189v60.592189h-60.592189z" fill="#FF0302" p-id="13238"></path><path d="M364.269929 781.632753h60.592189v60.592188h-60.592189z" fill="#FFD800" p-id="13239"></path><path d="M364.269929 721.040565h60.592189v60.592188h-60.592189z" fill="#FF0302" p-id="13240"></path><path d="M364.269929 660.449882h60.592189v60.592189h-60.592189z" fill="#FF0302" p-id="13241"></path><path d="M364.269929 599.856188h60.592189v60.592188h-60.592189z" fill="#A60000" p-id="13242"></path><path d="M606.635671 963.406306h60.592188v60.592188h-60.592188z" fill="#000000" p-id="13243"></path><path d="M606.635671 902.817129h60.592188v60.592189h-60.592188z" fill="#A60000" p-id="13244"></path><path d="M606.635671 842.223435h60.592188v60.592189h-60.592188z" fill="#FF0302" p-id="13245"></path><path d="M606.635671 781.632753h60.592188v60.592188h-60.592188z" fill="#FFD800" p-id="13246"></path><path d="M606.635671 721.040565h60.592188v60.592188h-60.592188z" fill="#FF0302" p-id="13247"></path><path d="M606.635671 660.449882h60.592188v60.592189h-60.592188z" fill="#FF0302" p-id="13248"></path><path d="M606.635671 599.856188h60.592188v60.592188h-60.592188z" fill="#A60000" p-id="13249"></path><path d="M243.094588 963.406306h60.592188v60.592188H243.094588z" fill="#000000" p-id="13250"></path><path d="M243.094588 902.817129h60.592188v60.592189H243.094588z" fill="#A60000" p-id="13251"></path><path d="M243.094588 842.223435h60.592188v60.592189H243.094588z" fill="#FF0302" p-id="13252"></path><path d="M243.094588 781.632753h60.592188v60.592188H243.094588zM243.094588 721.040565h60.592188v60.592188H243.094588z" fill="#FFD800" p-id="13253"></path><path d="M243.094588 660.449882h60.592188v60.592189H243.094588z" fill="#FFFFFF" p-id="13254"></path><path d="M243.094588 599.856188h60.592188v60.592188H243.094588z" fill="#A60000" p-id="13255"></path><path d="M667.223341 357.490447h60.592188v60.592188h-60.592188zM848.999906 539.267012h60.592188v60.592188h-60.592188zM848.999906 296.899765h60.592188v60.592188h-60.592188zM848.999906 60.593694h60.592188v60.592188h-60.592188zM606.635671 0h60.592188v60.592188h-60.592188zM909.587576 660.449882h60.592189v60.592189h-60.592189zM970.1888 781.632753h60.592188v60.592188h-60.592188zM606.635671 478.673318h60.592188v60.592188h-60.592188z" fill="#000000" p-id="13256"></path><path d="M606.635671 418.082635h60.592188v60.592189h-60.592188z" fill="#A60000" p-id="13257"></path><path d="M606.635671 357.490447h60.592188v60.592188h-60.592188z" fill="#FF0302" p-id="13258"></path><path d="M606.635671 296.899765h60.592188v60.592188h-60.592188zM243.094588 236.306071h60.592188v60.592188H243.094588zM667.223341 418.082635h60.592188v60.592189h-60.592188zM848.999906 599.856188h60.592188v60.592188h-60.592188zM848.999906 357.490447h60.592188v60.592188h-60.592188zM970.1888 478.673318h60.592188v60.592188h-60.592188zM909.587576 721.040565h60.592189v60.592188h-60.592189zM970.1888 842.223435h60.592188v60.592189h-60.592188zM909.587576 902.817129h60.592189v60.592189h-60.592189z" fill="#000000" p-id="13259"></path><path d="M909.587576 842.223435h60.592189v60.592189h-60.592189z" fill="#FFD800" p-id="13260"></path><path d="M909.587576 781.632753h60.592189v60.592188h-60.592189z" fill="#A60000" p-id="13261"></path><path d="M606.635671 539.267012h60.592188v60.592188h-60.592188z" fill="#000000" p-id="13262"></path><path d="M667.223341 599.856188h60.592188v60.592188h-60.592188zM727.823059 539.267012h60.592188v60.592188H727.823059zM788.412235 478.673318h60.592189v60.592188h-60.592189z" fill="#000000" p-id="13263"></path><path d="M546.035953 236.306071h60.592188v60.592188h-60.592188z" fill="#FF0302" p-id="13264"></path><path d="M485.446776 236.306071h60.592189v60.592188h-60.592189zM788.412235 963.406306h60.592189v60.592188h-60.592189z" fill="#000000" p-id="13265"></path><path d="M788.412235 902.817129h60.592189v60.592189h-60.592189z" fill="#A60000" p-id="13266"></path><path d="M788.412235 842.223435h60.592189v60.592189h-60.592189z" fill="#FF0302" p-id="13267"></path><path d="M788.412235 781.632753h60.592189v60.592188h-60.592189zM788.412235 721.040565h60.592189v60.592188h-60.592189z" fill="#FFD800" p-id="13268"></path><path d="M788.412235 660.449882h60.592189v60.592189h-60.592189zM788.412235 599.856188h60.592189v60.592188h-60.592189z" fill="#FF0302" p-id="13269"></path><path d="M788.412235 539.267012h60.592189v60.592188h-60.592189z" fill="#A60000" p-id="13270"></path><path d="M424.859106 963.406306h60.592188v60.592188h-60.592188z" fill="#000000" p-id="13271"></path><path d="M424.859106 902.817129h60.592188v60.592189h-60.592188z" fill="#A60000" p-id="13272"></path><path d="M424.859106 842.223435h60.592188v60.592189h-60.592188z" fill="#FFD800" p-id="13273"></path><path d="M424.859106 781.632753h60.592188v60.592188h-60.592188z" fill="#FFD800" p-id="13274"></path><path d="M424.859106 721.040565h60.592188v60.592188h-60.592188z" fill="#FFFFFF" p-id="13275"></path><path d="M424.859106 660.449882h60.592188v60.592189h-60.592188z" fill="#FF0302" p-id="13276"></path><path d="M424.859106 539.267012h60.592188v60.592188h-60.592188z" fill="#FFD800" p-id="13277"></path><path d="M424.859106 599.856188h60.592188v60.592188h-60.592188zM424.859106 478.673318h60.592188v60.592188h-60.592188z" fill="#FF0302" p-id="13278"></path><path d="M667.223341 963.406306h60.592188v60.592188h-60.592188z" fill="#000000" p-id="13279"></path><path d="M667.223341 902.817129h60.592188v60.592189h-60.592188z" fill="#A60000" p-id="13280"></path><path d="M667.223341 842.223435h60.592188v60.592189h-60.592188z" fill="#FFD800" p-id="13281"></path><path d="M667.223341 781.632753h60.592188v60.592188h-60.592188z" fill="#FFD800" p-id="13282"></path><path d="M667.223341 721.040565h60.592188v60.592188h-60.592188z" fill="#FFFFFF" p-id="13283"></path><path d="M667.223341 660.449882h60.592188v60.592189h-60.592188z" fill="#A60000" p-id="13284"></path><path d="M303.682259 963.406306h60.592188v60.592188h-60.592188z" fill="#000000" p-id="13285"></path><path d="M303.682259 902.817129h60.592188v60.592189h-60.592188z" fill="#A60000" p-id="13286"></path><path d="M303.682259 842.223435h60.592188v60.592189h-60.592188z" fill="#FF0302" p-id="13287"></path><path d="M303.682259 781.632753h60.592188v60.592188h-60.592188zM303.682259 721.040565h60.592188v60.592188h-60.592188z" fill="#FFD800" p-id="13288"></path><path d="M303.682259 660.449882h60.592188v60.592189h-60.592188z" fill="#FF0302" p-id="13289"></path><path d="M546.035953 963.406306h60.592188v60.592188h-60.592188z" fill="#000000" p-id="13290"></path><path d="M546.035953 902.817129h60.592188v60.592189h-60.592188z" fill="#A60000" p-id="13291"></path><path d="M546.035953 842.223435h60.592188v60.592189h-60.592188z" fill="#FF0302" p-id="13292"></path><path d="M546.035953 781.632753h60.592188v60.592188h-60.592188zM546.035953 721.040565h60.592188v60.592188h-60.592188z" fill="#FFD800" p-id="13293"></path><path d="M546.035953 660.449882h60.592188v60.592189h-60.592188zM546.035953 539.267012h60.592188v60.592188h-60.592188z" fill="#FF0302" p-id="13294"></path><path d="M546.035953 599.856188h60.592188v60.592188h-60.592188z" fill="#FFFFFF" p-id="13295"></path><path d="M546.035953 478.673318h60.592188v60.592188h-60.592188z" fill="#FF0302" p-id="13296"></path><path d="M546.035953 418.082635h60.592188v60.592189h-60.592188z" fill="#FFD800" p-id="13297"></path><path d="M182.482824 963.406306h60.592188v60.592188H182.482824z" fill="#000000" p-id="13298"></path><path d="M182.482824 902.817129h60.592188v60.592189H182.482824z" fill="#A60000" p-id="13299"></path><path d="M182.482824 842.223435h60.592188v60.592189H182.482824z" fill="#FFD800" p-id="13300"></path><path d="M182.482824 781.632753h60.592188v60.592188H182.482824z" fill="#FFD800" p-id="13301"></path><path d="M182.482824 721.040565h60.592188v60.592188H182.482824z" fill="#FFFFFF" p-id="13302"></path><path d="M182.482824 660.449882h60.592188v60.592189H182.482824zM182.482824 599.856188h60.592188v60.592188H182.482824zM546.035953 296.899765h60.592188v60.592188h-60.592188z" fill="#FF0302" p-id="13303"></path><path d="M485.446776 296.899765h60.592189v60.592188h-60.592189z" fill="#000000" p-id="13304"></path><path d="M546.035953 357.490447h60.592188v60.592188h-60.592188z" fill="#FF0302" p-id="13305"></path><path d="M485.446776 357.490447h60.592189v60.592188h-60.592189zM424.859106 418.082635h60.592188v60.592189h-60.592188z" fill="#000000" p-id="13306"></path><path d="M364.269929 478.673318h60.592189v60.592188h-60.592189zM243.094588 478.673318h60.592188v60.592188H243.094588z" fill="#000000" p-id="13307"></path><path d="M182.482824 478.673318h60.592188v60.592188H182.482824z" fill="#FF0302" p-id="13308"></path><path d="M182.482824 418.082635h60.592188v60.592189H182.482824zM364.269929 539.267012h60.592189v60.592188h-60.592189zM243.094588 539.267012h60.592188v60.592188H243.094588z" fill="#000000" p-id="13309"></path><path d="M182.482824 539.267012h60.592188v60.592188H182.482824z" fill="#FFD800" p-id="13310"></path><path d="M121.893647 478.673318h60.592188v60.592188H121.893647zM61.305976 599.856188h60.592189v60.592188H61.305976zM0.718306 721.040565h60.592188v60.592188H0.718306z" fill="#000000" p-id="13311"></path><path d="M121.893647 539.267012h60.592188v60.592188H121.893647zM61.305976 660.449882h60.592189v60.592189H61.305976zM0.718306 781.632753h60.592188v60.592188H0.718306z" fill="#000000" p-id="13312"></path><path d="M0.718306 842.223435h60.592188v60.592189H0.718306zM61.305976 902.817129h60.592189v60.592189H61.305976z" fill="#000000" p-id="13313"></path><path d="M61.305976 842.223435h60.592189v60.592189H61.305976z" fill="#FFD800" p-id="13314"></path><path d="M61.305976 781.632753h60.592189v60.592188H61.305976zM61.305976 721.040565h60.592189v60.592188H61.305976z" fill="#FF0302" p-id="13315"></path><path d="M121.893647 963.406306h60.592188v60.592188H121.893647z" fill="#000000" p-id="13316"></path><path d="M121.893647 902.817129h60.592188v60.592189H121.893647z" fill="#A60000" p-id="13317"></path><path d="M121.893647 842.223435h60.592188v60.592189H121.893647z" fill="#FF0302" p-id="13318"></path><path d="M121.893647 781.632753h60.592188v60.592188H121.893647z" fill="#FFD800" p-id="13319"></path><path d="M121.893647 721.040565h60.592188v60.592188H121.893647z" fill="#FF0302" p-id="13320"></path><path d="M121.893647 660.449882h60.592188v60.592189H121.893647zM121.893647 599.856188h60.592188v60.592188H121.893647z" fill="#FF0302" p-id="13321"></path><path d="M303.682259 599.856188h60.592188v60.592188h-60.592188z" fill="#000000" p-id="13322"></path></svg>