<?xml version="1.0" standalone="no"?><!DOCTYPE svg PUBLIC "-//W3C//DTD SVG 1.1//EN" "http://www.w3.org/Graphics/SVG/1.1/DTD/svg11.dtd"><svg height="1024" node-id="1" sillyvg="true" template-height="1024" template-width="1024" version="1.1" viewBox="0 0 1024 1024" width="1024" xmlns="http://www.w3.org/2000/svg" xmlns:xlink="http://www.w3.org/1999/xlink"><defs node-id="381"><linearGradient gradientUnits="objectBoundingBox" id="SVGID_00000150821502200783205670000012320358501549999515_" node-id="277" spreadMethod="pad" x1="482.1891" x2="482.1891" y1="935.691" y2="52.4064"><stop offset="0" stop-color="#f29d0b"></stop><stop offset="0.5307" stop-color="#fef3a7"></stop><stop offset="1" stop-color="#fde48a"></stop></linearGradient><radialGradient cx="37.8645" cy="216.8941" fx="37.8645" fy="216.8941" gradientUnits="objectBoundingBox" id="SVGID_00000069383178306201885300000000487592608831004346_" node-id="291" r="138.7164" rev="3" spreadMethod="pad"><stop offset="0" stop-color="#ff7b69"></stop><stop offset="0.5479" stop-color="#d4341f"></stop></radialGradient><radialGradient cx="795.2404" cy="717.5851" fx="795.2404" fy="717.5851" gradientUnits="objectBoundingBox" id="SVGID_00000126308368536406363720000001169018527191339405_" node-id="295" r="182.9997" rev="2" spreadMethod="pad"><stop offset="0" stop-color="#ff7b69"></stop><stop offset="0.5479" stop-color="#d4341f"></stop></radialGradient><radialGradient cx="59.5125" cy="776.9923" fx="59.5125" fy="776.9923" gradientUnits="objectBoundingBox" id="SVGID_00000039098385912390449490000016248683468597128097_" node-id="299" r="116.3002" rev="1" spreadMethod="pad"><stop offset="0" stop-color="#ff7b69"></stop><stop offset="0.5479" stop-color="#d4341f"></stop></radialGradient></defs><path d="M 923.83 512.00 C 923.83 629.13 877.30 741.46 794.48 824.29 C 711.65 907.11 599.32 953.64 482.19 953.64 C 365.06 953.64 252.73 907.11 169.90 824.29 C 87.08 741.46 40.55 629.13 40.55 512.00 C 40.55 394.87 87.08 282.54 169.90 199.71 C 252.73 116.89 365.06 70.36 482.19 70.36 C 599.32 70.36 711.65 116.89 794.48 199.71 C 877.30 282.54 923.83 394.87 923.83 512.00 Z" fill="url(#SVGID_00000150821502200783205670000012320358501549999515_)" fill-rule="nonzero" node-id="411" stroke="none" target-height="883.27997" target-width="883.28" target-x="40.549988" target-y="70.359985"></path><g node-id="451"><g node-id="453"><path d="M 742.58 269.54 C 791.86 318.82 801.84 388.72 764.88 425.68 C 727.93 462.64 658.02 452.66 608.74 403.38 C 559.47 354.11 549.48 284.20 586.44 247.24 C 623.40 210.28 693.31 220.27 742.58 269.54 Z" fill="#ffffff" fill-rule="nonzero" group-id="1,3" node-id="417" stroke="none" target-height="252.36148" target-width="252.36145" target-x="549.48236" target-y="210.28088"></path></g><g node-id="454"><path d="M 713.74 285.32 C 745.77 317.35 751.77 363.29 727.13 387.93 C 702.49 412.57 656.55 406.57 624.52 374.54 C 592.49 342.51 586.50 296.57 611.14 271.94 C 635.77 247.30 681.71 253.29 713.74 285.32 Z" fill="#2d1d01" fill-rule="nonzero" group-id="1,4" node-id="422" stroke="none" target-height="165.26855" target-width="165.26855" target-x="586.4983" target-y="247.29892"></path></g><path d="M 683.69 312.93 C 683.69 330.35 669.56 344.48 652.14 344.48 C 634.72 344.48 620.59 330.35 620.59 312.93 C 620.59 295.51 634.72 281.38 652.14 281.38 C 669.56 281.38 683.69 295.51 683.69 312.93 Z" fill="#ffffff" fill-rule="nonzero" group-id="1" node-id="425" stroke="none" target-height="63.099976" target-width="63.099976" target-x="620.59" target-y="281.38"></path></g><g node-id="452"><g node-id="455"><path d="M 440.11 247.24 C 477.07 284.20 467.08 354.10 417.80 403.38 C 368.53 452.65 298.62 462.64 261.66 425.68 C 224.70 388.72 234.69 318.81 283.97 269.54 C 333.24 220.26 403.15 210.28 440.11 247.24 Z" fill="#ffffff" fill-rule="nonzero" group-id="2,5" node-id="432" stroke="none" target-height="252.36145" target-width="252.36148" target-x="224.70425" target-y="210.27777"></path></g><g node-id="456"><path d="M 415.41 271.93 C 440.05 296.57 434.05 342.51 402.02 374.54 C 369.99 406.57 324.06 412.56 299.42 387.92 C 274.78 363.29 280.77 317.35 312.80 285.32 C 344.83 253.29 390.77 247.29 415.41 271.93 Z" fill="#2d1d01" fill-rule="nonzero" group-id="2,6" node-id="437" stroke="none" target-height="165.26854" target-width="165.2685" target-x="274.7791" target-y="247.29366"></path></g><path d="M 405.97 312.93 C 405.97 330.35 391.84 344.48 374.42 344.48 C 357.00 344.48 342.87 330.35 342.87 312.93 C 342.87 295.51 357.00 281.38 374.42 281.38 C 391.84 281.38 405.97 295.51 405.97 312.93 Z" fill="#ffffff" fill-rule="nonzero" group-id="2" node-id="440" stroke="none" target-height="63.099976" target-width="63.099976" target-x="342.87003" target-y="281.38"></path></g><path d="M 410.32 511.33 C 424.76 550.29 451.53 576.46 482.17 576.46 C 512.83 576.46 539.62 550.26 554.06 511.25" fill="none" node-id="443" stroke="#682b00" stroke-linecap="round" stroke-width="30" target-height="65.21005" target-width="143.73999" target-x="410.32" target-y="511.24997"></path><path d="M 235.81 220.02 C 224.84 150.80 164.79 171.10 135.55 184.83 C 132.08 186.46 128.22 185.79 125.50 183.08 C 102.61 160.29 52.94 120.92 19.25 182.37 C -11.84 239.08 48.13 311.62 80.56 344.79 C 91.77 356.25 108.86 359.22 123.28 352.22 C 165.01 331.95 245.93 283.90 235.81 220.02 Z" fill="url(#SVGID_00000069383178306201885300000000487592608831004346_)" fill-rule="nonzero" node-id="445" stroke="none" target-height="238.30002" target-width="257.77" target-x="-11.84" target-y="120.920006"></path><path d="M 1002.49 539.11 C 958.97 457.53 892.85 508.72 862.32 538.45 C 858.69 541.98 853.60 542.81 849.04 540.60 C 810.68 522.05 731.77 494.37 716.26 585.52 C 701.95 669.63 807.98 734.23 862.72 761.60 C 881.64 771.06 904.23 767.40 919.19 752.44 C 962.47 709.18 1042.65 614.38 1002.49 539.11 Z" fill="url(#SVGID_00000126308368536406363720000001169018527191339405_)" fill-rule="nonzero" node-id="447" stroke="none" target-height="313.52994" target-width="340.7" target-x="701.95" target-y="457.53"></path><path d="M 228.62 724.14 C 199.04 673.37 158.27 707.46 139.58 727.06 C 137.36 729.39 134.15 730.04 131.20 728.74 C 106.39 717.87 55.62 702.18 47.94 760.43 C 40.85 814.19 109.73 852.69 145.15 868.76 C 157.39 874.32 171.65 871.45 180.79 861.60 C 207.25 833.11 255.92 770.99 228.62 724.14 Z" fill="url(#SVGID_00000039098385912390449490000016248683468597128097_)" fill-rule="nonzero" node-id="449" stroke="none" target-height="200.95001" target-width="215.07" target-x="40.85" target-y="673.37"></path></svg>