<?xml version="1.0" standalone="no"?><!DOCTYPE svg PUBLIC "-//W3C//DTD SVG 1.1//EN" "http://www.w3.org/Graphics/SVG/1.1/DTD/svg11.dtd"><svg t="1773201786924" class="icon" viewBox="0 0 1024 1024" version="1.1" xmlns="http://www.w3.org/2000/svg" p-id="12459" xmlns:xlink="http://www.w3.org/1999/xlink" width="200" height="200"><path d="M741.103244 189.905455c24.203636 53.992727 27.927273 143.36-22.341819 186.181818C636.841425 61.44 432.041425 0 432.041425 0 456.245062 160.116364 346.397789 335.127273 238.412335 467.316364c-3.723636-63.301818-7.447273-106.123636-42.821819-171.287273-7.447273 117.294545-96.814545 210.385455-122.88 327.68-31.650909 161.978182 26.065455 275.549091 245.76 400.290909-68.887273-143.36-31.650909-225.28 22.341819-299.752727 57.716364-85.643636 72.610909-167.563636 72.610909-167.563637s46.545455 57.716364 27.927272 148.945455c78.196364-89.367273 93.090909-232.727273 81.92-284.858182 178.734545 124.741818 258.792727 400.290909 154.530909 599.505455 551.098182-314.647273 135.912727-781.963636 63.301819-830.370909z" fill="#d81e06" p-id="12460"></path></svg>