<?xml version="1.0" standalone="no"?><!DOCTYPE svg PUBLIC "-//W3C//DTD SVG 1.1//EN" "http://www.w3.org/Graphics/SVG/1.1/DTD/svg11.dtd"><svg t="1773201814302" class="icon" viewBox="0 0 1024 1024" version="1.1" xmlns="http://www.w3.org/2000/svg" p-id="14323" xmlns:xlink="http://www.w3.org/1999/xlink" width="200" height="200"><path d="M599.7 687.5C454.9 571.7 483.9 456 483.9 456c-361.5 222.4-108.7 524.9-88.2 548.4 32 12.2 66.6 18.8 102.7 18.8 35.9 0 70.3-6.6 102.2-18.6 11.9-17.4 137.1-206.7-0.9-317.1z" fill="#D73526" p-id="14324"></path><path d="M757 328.3l-75.6 75.6s0-302.5-252.2-403.3c0 0-25.2 277.3-151.3 378.1-126.1 100.9-378.3 403.3 126 630.2 0 0-252.2-277.3 75.6-478.9 0 0-25.2 100.8 100.9 201.7 126.1 100.8 0 277.3 0 277.3S1185.6 857.7 757 328.3z m0 0" fill="#E14535" p-id="14325"></path></svg>