<?xml version="1.0" standalone="no"?><!DOCTYPE svg PUBLIC "-//W3C//DTD SVG 1.1//EN" "http://www.w3.org/Graphics/SVG/1.1/DTD/svg11.dtd"><svg height="1024" node-id="1" sillyvg="true" template-height="1024" template-width="1024" version="1.1" viewBox="0 0 1024 1024" width="1024" xmlns="http://www.w3.org/2000/svg" xmlns:xlink="http://www.w3.org/1999/xlink"><defs node-id="381"><linearGradient gradientUnits="objectBoundingBox" id="SVGID_00000090979224477099529080000002210680723106237107_" node-id="250" spreadMethod="pad" x1="512" x2="512" y1="935.691" y2="52.4064"><stop offset="0" stop-color="#f29d0b"></stop><stop offset="0.5307" stop-color="#fef3a7"></stop><stop offset="1" stop-color="#fde48a"></stop></linearGradient><linearGradient gradientUnits="objectBoundingBox" id="SVGID_00000166660335720063525600000000286449617843877534_" node-id="263" spreadMethod="pad" x1="509.2846" x2="509.2846" y1="545.5946" y2="846.0648"><stop offset="0" stop-color="#5c351e"></stop><stop offset="1" stop-color="#291509"></stop></linearGradient><linearGradient gradientUnits="objectBoundingBox" id="SVGID_00000022559957614021939520000012820507304020226190_" node-id="267" spreadMethod="pad" x1="508.7711" x2="508.7711" y1="711.7043" y2="846.0648"><stop offset="0" stop-color="#e05e65"></stop><stop offset="1" stop-color="#c5272d"></stop></linearGradient><linearGradient gradientUnits="objectBoundingBox" id="SVGID_00000098926353178729601730000010327430034107371950_" node-id="272" spreadMethod="pad" x1="672.9037" x2="672.9037" y1="747.0626" y2="935.2653"><stop offset="0" stop-color="#97e6fc"></stop><stop offset="1" stop-color="#00bcf2"></stop></linearGradient><radialGradient cx="344.0112" cy="312.2856" fx="344.0112" fy="312.2856" gradientUnits="objectBoundingBox" id="SVGID_00000073699593423520793440000006737761398145822862_" node-id="255" r="195.1343" rev="2" spreadMethod="pad"><stop offset="0" stop-color="#ff7b69"></stop><stop offset="0.5479" stop-color="#d4341f"></stop></radialGradient><radialGradient cx="310.7941" cy="308.1124" fx="310.7941" fy="308.1124" gradientUnits="objectBoundingBox" id="SVGID_00000148644214979278998390000006872390306167097224_" node-id="259" r="182.9031" rev="1" spreadMethod="pad"><stop offset="0" stop-color="#ff7b69"></stop><stop offset="0.5479" stop-color="#d4341f"></stop></radialGradient></defs><path d="M 953.64 512.00 C 953.64 629.13 907.11 741.46 824.29 824.29 C 741.46 907.11 629.13 953.64 512.00 953.64 C 394.87 953.64 282.54 907.11 199.71 824.29 C 116.89 741.46 70.36 629.13 70.36 512.00 C 70.36 394.87 116.89 282.54 199.71 199.71 C 282.54 116.89 394.87 70.36 512.00 70.36 C 629.13 70.36 741.46 116.89 824.29 199.71 C 907.11 282.54 953.64 394.87 953.64 512.00 Z" fill="url(#SVGID_00000090979224477099529080000002210680723106237107_)" fill-rule="nonzero" node-id="423" stroke="none" target-height="883.27997" target-width="883.27997" target-x="70.359985" target-y="70.359985"></path><path d="M 469.91 246.26 C 440.97 161.43 369.88 200.16 336.11 223.87 C 332.10 226.69 327.10 226.69 323.09 223.87 C 289.32 200.16 218.22 161.43 189.29 246.26 C 162.59 324.54 253.87 402.82 301.92 437.51 C 318.53 449.50 340.67 449.50 357.28 437.51 C 405.33 402.82 496.62 324.54 469.91 246.26 Z" fill="url(#SVGID_00000073699593423520793440000006737761398145822862_)" fill-rule="nonzero" node-id="425" stroke="none" target-height="288.07" target-width="334.03003" target-x="162.59" target-y="161.43"></path><path d="M 554.09 246.26 C 583.03 161.43 654.12 200.16 687.89 223.87 C 691.90 226.69 696.90 226.69 700.91 223.87 C 734.68 200.16 805.78 161.43 834.71 246.26 C 861.41 324.54 770.13 402.82 722.08 437.51 C 705.47 449.50 683.33 449.50 666.72 437.51 C 618.67 402.82 527.38 324.54 554.09 246.26 Z" fill="url(#SVGID_00000148644214979278998390000006872390306167097224_)" fill-rule="nonzero" node-id="427" stroke="none" target-height="288.07" target-width="334.0299" target-x="527.38" target-y="161.43"></path><path d="M 757.85 623.69 C 748.68 650.70 736.91 686.47 717.72 721.40 C 682.71 785.11 623.00 846.06 509.29 846.06 C 394.45 846.06 334.68 783.90 299.83 719.50 C 281.24 685.18 269.74 650.21 260.73 623.69 C 234.84 547.42 316.66 545.59 354.98 545.59 C 393.30 545.59 509.29 545.59 509.29 545.59 C 509.29 545.59 625.28 545.59 663.60 545.59 C 701.92 545.59 783.73 547.42 757.85 623.69 Z" fill="url(#SVGID_00000166660335720063525600000000286449617843877534_)" fill-rule="nonzero" node-id="429" stroke="none" target-height="300.46997" target-width="548.89" target-x="234.84" target-y="545.59"></path><path d="M 717.72 721.40 C 682.71 785.11 623.00 846.06 509.29 846.06 C 394.45 846.06 334.68 783.90 299.83 719.50 C 318.57 714.52 339.87 711.70 362.44 711.70 C 416.36 711.70 465.74 711.46 509.29 731.87 C 552.94 716.96 568.46 711.70 633.63 711.70 C 664.26 711.70 692.98 715.23 717.72 721.40 Z" fill="url(#SVGID_00000022559957614021939520000012820507304020226190_)" fill-rule="nonzero" node-id="431" stroke="none" target-height="134.59998" target-width="417.88998" target-x="299.83" target-y="711.46"></path><path d="M 663.60 545.59 C 625.28 545.59 509.29 545.59 509.29 545.59 C 509.29 545.59 393.30 545.59 354.98 545.59 C 316.66 545.59 234.84 547.43 260.74 623.69 C 286.63 699.96 333.24 846.06 509.30 846.06 C 685.36 846.06 731.97 699.96 757.86 623.69 C 783.73 547.43 701.92 545.59 663.60 545.59 Z" fill="none" node-id="433" stroke="none" target-height="300.46997" target-width="548.89" target-x="234.84" target-y="545.59"></path><path d="M 682.11 752.14 C 677.81 745.37 668.00 745.37 663.70 752.14 C 646.12 779.80 609.52 841.69 609.52 877.29 C 609.52 909.38 631.25 935.27 672.91 935.27 C 714.57 935.27 736.30 909.39 736.30 877.29 C 736.29 841.69 699.69 779.80 682.11 752.14 Z" fill="url(#SVGID_00000098926353178729601730000010327430034107371950_)" fill-rule="nonzero" node-id="435" stroke="none" target-height="189.90002" target-width="126.77997" target-x="609.52" target-y="745.37"></path></svg>