<?xml version="1.0" standalone="no"?><!DOCTYPE svg PUBLIC "-//W3C//DTD SVG 1.1//EN" "http://www.w3.org/Graphics/SVG/1.1/DTD/svg11.dtd"><svg height="1024" node-id="1" sillyvg="true" template-height="1024" template-width="1024" version="1.1" viewBox="0 0 1024 1024" width="1024" xmlns="http://www.w3.org/2000/svg" xmlns:xlink="http://www.w3.org/1999/xlink"><defs node-id="381"><linearGradient gradientUnits="objectBoundingBox" id="SVGID_00000127046369853917694160000001593900169206849709_" node-id="59" spreadMethod="pad" x1="512" x2="512" y1="935.691" y2="52.4064"><stop offset="0" stop-color="#f29d0b"></stop><stop offset="0.5307" stop-color="#fef3a7"></stop><stop offset="1" stop-color="#fde48a"></stop></linearGradient></defs><path d="M 953.64 512.00 C 953.64 629.13 907.11 741.46 824.29 824.29 C 741.46 907.11 629.13 953.64 512.00 953.64 C 394.87 953.64 282.54 907.11 199.71 824.29 C 116.89 741.46 70.36 629.13 70.36 512.00 C 70.36 394.87 116.89 282.54 199.71 199.71 C 282.54 116.89 394.87 70.36 512.00 70.36 C 629.13 70.36 741.46 116.89 824.29 199.71 C 907.11 282.54 953.64 394.87 953.64 512.00 Z" fill="url(#SVGID_00000127046369853917694160000001593900169206849709_)" fill-rule="nonzero" node-id="393" stroke="none" target-height="883.27997" target-width="883.27997" target-x="70.359985" target-y="70.359985"></path><g node-id="417"><path d="M 942.45 236.53 C 942.45 256.51 898.60 298.77 898.60 298.77 L 887.70 340.81 L 861.68 441.27 C 854.47 469.08 829.38 488.50 800.66 488.50 L 662.67 488.50 C 657.97 488.50 653.38 487.98 648.94 486.99 C 648.71 486.94 648.48 486.89 648.26 486.83 C 647.41 486.64 646.57 486.42 645.74 486.19 C 645.32 486.07 644.91 485.95 644.49 485.83 C 640.77 484.70 637.19 483.25 633.77 481.48 C 633.39 481.29 633.02 481.09 632.64 480.89 C 632.27 480.68 631.89 480.47 631.52 480.26 C 631.27 480.12 631.02 479.98 630.77 479.83 C 624.51 476.16 618.91 471.42 614.25 465.82 C 614.17 465.73 614.09 465.64 614.01 465.54 C 613.73 465.21 613.46 464.88 613.21 464.55 C 612.96 464.23 612.71 463.91 612.47 463.59 C 612.14 463.18 611.84 462.76 611.54 462.34 C 610.82 461.35 610.14 460.34 609.48 459.30 C 609.25 458.94 609.02 458.58 608.79 458.21 C 608.79 458.20 608.78 458.20 608.78 458.19 C 608.58 457.85 608.37 457.50 608.17 457.15 C 607.71 456.38 607.28 455.60 606.88 454.81 C 606.67 454.43 606.47 454.04 606.28 453.65 C 606.09 453.26 605.90 452.87 605.71 452.48 C 605.33 451.69 604.97 450.89 604.64 450.08 C 604.52 449.80 604.40 449.51 604.28 449.22 C 604.06 448.69 603.85 448.16 603.66 447.63 C 603.39 446.91 603.13 446.18 602.89 445.44 C 602.70 444.92 602.54 444.39 602.38 443.85 C 602.26 443.46 602.14 443.07 602.03 442.68 C 601.90 442.22 601.77 441.75 601.65 441.28 L 595.80 423.05 L 564.81 326.47 C 557.09 302.41 540.52 275.88 516.48 275.85 L 507.52 275.85 C 483.48 275.88 466.91 302.41 459.19 326.47 L 422.35 441.27 C 415.15 469.08 390.05 488.50 361.33 488.50 L 223.34 488.50 C 216.24 488.50 209.36 487.31 202.91 485.10 C 202.84 485.08 202.77 485.05 202.70 485.03 C 201.08 484.46 199.48 483.84 197.91 483.14 C 196.41 482.48 194.93 481.76 193.49 480.98 C 193.05 480.76 192.62 480.52 192.19 480.26 C 191.84 480.06 191.49 479.86 191.14 479.65 C 190.55 479.31 189.97 478.95 189.40 478.58 C 188.96 478.30 188.52 478.01 188.09 477.72 C 187.86 477.57 187.64 477.42 187.42 477.25 C 187.04 477.00 186.66 476.73 186.28 476.44 C 186.12 476.34 185.97 476.23 185.81 476.11 L 185.81 476.10 C 179.84 471.68 174.65 466.20 170.55 459.90 C 170.41 459.70 170.28 459.50 170.15 459.30 C 169.92 458.94 169.69 458.57 169.47 458.20 C 168.79 457.10 168.15 455.96 167.55 454.81 C 167.35 454.43 167.15 454.04 166.95 453.65 C 166.56 452.87 166.19 452.09 165.83 451.29 C 165.65 450.89 165.48 450.49 165.31 450.08 C 165.14 449.68 164.97 449.27 164.81 448.86 C 164.47 448.04 164.16 447.21 163.88 446.38 C 163.77 446.07 163.66 445.76 163.56 445.44 C 163.10 444.07 162.68 442.69 162.32 441.28 L 154.84 412.40 L 136.30 340.81 L 136.29 340.81 L 125.40 298.77 C 125.40 298.77 81.55 256.51 81.55 236.53 C 81.55 223.38 101.63 218.73 104.45 217.89 C 112.97 215.35 234.33 209.82 272.79 208.12 C 273.64 208.08 274.46 208.04 275.23 208.01 C 275.49 208.00 275.74 207.99 275.99 207.98 C 276.77 207.94 277.52 207.91 278.21 207.88 C 278.66 207.86 279.08 207.84 279.48 207.82 C 279.75 207.81 280.01 207.80 280.26 207.79 C 280.46 207.78 280.65 207.77 280.84 207.76 C 281.41 207.74 281.91 207.72 282.34 207.70 C 282.54 207.69 282.72 207.68 282.89 207.67 C 282.99 207.67 283.08 207.67 283.17 207.66 C 283.25 207.66 283.33 207.66 283.40 207.65 C 283.48 207.65 283.56 207.65 283.63 207.64 C 283.73 207.64 283.82 207.63 283.90 207.63 C 284.22 207.62 284.39 207.61 284.39 207.61 C 285.98 207.61 287.57 207.62 289.17 207.63 C 290.66 207.64 292.16 207.66 293.66 207.69 C 301.00 207.80 308.37 208.04 315.75 208.41 C 323.69 208.80 331.62 209.31 339.49 209.95 C 341.21 210.08 342.92 210.22 344.63 210.36 C 344.74 210.37 344.85 210.38 344.95 210.39 C 346.68 210.54 348.41 210.69 350.13 210.85 C 350.98 210.92 351.83 211.00 352.67 211.09 C 355.35 211.34 358.02 211.60 360.67 211.87 C 435.90 219.64 500.95 235.37 505.63 236.51 L 518.37 236.51 C 524.20 235.09 623.80 211.00 720.00 207.93 C 720.14 207.93 720.28 207.92 720.42 207.92 C 723.56 207.82 726.70 207.74 729.83 207.69 C 733.10 207.64 736.36 207.61 739.61 207.61 C 739.61 207.61 740.74 207.66 742.82 207.75 C 743.12 207.76 743.44 207.78 743.79 207.79 C 744.47 207.82 745.23 207.85 746.08 207.89 C 746.52 207.91 746.99 207.93 747.49 207.95 C 748.66 208.01 749.96 208.06 751.37 208.12 C 752.17 208.16 753.00 208.19 753.86 208.24 C 754.73 208.27 755.65 208.31 756.59 208.35 C 757.34 208.39 758.12 208.42 758.91 208.46 C 759.00 208.47 759.09 208.47 759.18 208.47 C 759.92 208.50 760.67 208.54 761.43 208.57 C 761.86 208.59 762.29 208.61 762.73 208.63 C 769.67 208.94 777.83 209.31 786.72 209.73 C 793.59 210.05 800.90 210.40 808.42 210.76 C 856.76 213.10 913.81 216.18 919.55 217.89 C 922.37 218.73 942.45 223.38 942.45 236.53 Z" fill="#1c1c1a" fill-rule="nonzero" group-id="1" node-id="397" stroke="none" target-height="280.89" target-width="860.9" target-x="81.55" target-y="207.61"></path><g node-id="418"><path d="M 315.75 208.41 L 170.54 459.91 C 166.88 454.30 164.07 448.04 162.32 441.28 L 154.84 412.40 L 272.79 208.12 C 280.08 207.79 284.39 207.61 284.39 207.61 C 294.77 207.61 305.26 207.89 315.75 208.41 Z" fill="#434341" fill-rule="nonzero" group-id="1,2" node-id="401" stroke="none" target-height="252.30003" target-width="160.91" target-x="154.84" target-y="207.61"></path><path d="M 360.67 211.87 L 202.91 485.11 C 196.75 483.00 190.98 479.95 185.81 476.11 L 339.49 209.95 C 346.61 210.50 353.69 211.15 360.67 211.87 Z" fill="#434341" fill-rule="nonzero" group-id="1,2" node-id="403" stroke="none" target-height="275.16003" target-width="174.86002" target-x="185.81" target-y="209.95"></path><path d="M 762.73 208.63 L 614.24 465.83 C 608.42 458.85 604.04 450.53 601.65 441.28 L 595.80 423.05 L 720.00 207.93 C 726.56 207.72 733.11 207.61 739.61 207.61 C 739.61 207.61 748.67 208.00 762.73 208.63 Z" fill="#434341" fill-rule="nonzero" group-id="1,2" node-id="405" stroke="none" target-height="258.21997" target-width="166.93" target-x="595.8" target-y="207.61"></path><path d="M 808.42 210.76 L 648.94 486.99 L 648.93 486.99 C 648.71 486.94 648.48 486.89 648.26 486.83 C 647.41 486.64 646.57 486.42 645.74 486.19 C 645.32 486.07 644.91 485.95 644.49 485.83 C 640.77 484.71 637.18 483.25 633.77 481.48 C 633.39 481.29 633.02 481.09 632.64 480.89 C 632.27 480.68 631.89 480.47 631.52 480.26 C 631.27 480.12 631.02 479.98 630.77 479.83 L 786.72 209.73 C 793.59 210.05 800.90 210.40 808.42 210.76 Z" fill="#434341" fill-rule="nonzero" group-id="1,2" node-id="407" stroke="none" target-height="277.26" target-width="177.64996" target-x="630.77" target-y="209.72998"></path></g><path d="M 942.45 236.53 C 942.45 256.51 898.60 298.77 898.60 298.77 L 887.71 340.81 L 861.68 441.28 C 854.47 469.08 829.38 488.51 800.66 488.51 L 662.67 488.51 C 657.97 488.51 653.38 487.99 648.94 486.99 L 648.93 486.99 C 642.47 485.56 636.36 483.12 630.77 479.83 C 624.51 476.16 618.91 471.42 614.24 465.83 C 608.42 458.85 604.04 450.53 601.65 441.28 L 595.80 423.05 L 564.81 326.47 C 557.09 302.41 540.52 275.88 516.48 275.85 L 507.52 275.85 C 483.48 275.88 466.91 302.41 459.19 326.47 L 422.35 441.28 C 415.15 469.08 390.05 488.51 361.33 488.51 L 223.34 488.51 C 216.24 488.51 209.36 487.32 202.91 485.11 C 196.75 483.00 190.98 479.95 185.81 476.11 C 179.84 471.69 174.65 466.21 170.54 459.91 C 166.88 454.30 164.07 448.04 162.32 441.28 L 154.84 412.40 L 136.30 340.81 L 136.29 340.81 L 125.40 298.77 C 125.40 298.77 81.55 256.51 81.55 236.53 C 81.55 223.38 101.63 218.73 104.45 217.89 C 112.97 215.36 234.33 209.82 272.79 208.12 C 280.08 207.79 284.39 207.61 284.39 207.61 C 294.77 207.61 305.26 207.89 315.75 208.41 C 323.69 208.79 331.62 209.31 339.49 209.95 C 346.61 210.50 353.69 211.15 360.67 211.87 L 360.68 211.87 C 435.91 219.64 500.95 235.37 505.63 236.51 L 518.37 236.51 C 524.20 235.09 623.80 211.00 720.00 207.93 C 726.56 207.72 733.11 207.61 739.61 207.61 C 739.61 207.61 748.67 208.00 762.73 208.63 L 762.74 208.63 C 769.68 208.95 777.83 209.32 786.72 209.73 C 793.59 210.05 800.90 210.40 808.42 210.76 C 856.76 213.11 913.81 216.18 919.55 217.89 C 922.37 218.73 942.45 223.38 942.45 236.53 Z" fill="none" group-id="1" node-id="410" stroke="none" target-height="280.90002" target-width="860.9" target-x="81.55" target-y="207.61"></path><path d="M 171.81 256.53 L 178.32 234.29 L 184.83 256.53 C 187.47 265.55 194.52 272.61 203.54 275.24 L 225.78 281.75 L 203.54 288.26 C 194.52 290.90 187.46 297.95 184.83 306.97 L 178.32 329.21 L 171.81 306.97 C 169.17 297.95 162.12 290.89 153.10 288.26 L 130.86 281.75 L 153.10 275.24 C 162.12 272.60 169.18 265.55 171.81 256.53 Z" fill="#ffffff" fill-rule="nonzero" group-id="1" node-id="412" stroke="none" target-height="94.92" target-width="94.92" target-x="130.86" target-y="234.29"></path></g><path d="M 585.97 648.12 C 579.61 679.54 560.71 707.87 531.33 724.83 C 502.09 741.71 468.31 743.98 438.03 733.94" fill="none" node-id="415" stroke="#682b00" stroke-linecap="round" stroke-width="30" target-height="95.859985" target-width="147.93997" target-x="438.03" target-y="648.12"></path></svg>